<?xml version="1.0" encoding="utf-8"?>
<!-- Generator: Adobe Illustrator 24.0.2, SVG Export Plug-In . SVG Version: 6.00 Build 0)  -->
<svg version="1.1" id="Capa_1" xmlns="http://www.w3.org/2000/svg" xmlns:xlink="http://www.w3.org/1999/xlink" x="0px" y="0px"
	 viewBox="0 0 706 699" style="enable-background:new 0 0 706 699;" xml:space="preserve">
<style type="text/css">
	.st0{opacity:0.5;fill-rule:evenodd;clip-rule:evenodd;fill:#FFFFFF;}
</style>
<path class="st0" d="M656,39.2c-39.1-39.1-102.4-39.1-141.4,0l-56,56L195.1,358.8c-4.3,4.3-7.3,9.6-8.8,15.5L153,507.6
	c-2.8,11.4,0.5,23.4,8.8,31.7s20.3,11.6,31.7,8.8l133.3-33.3c5.9-1.5,11.2-4.5,15.5-8.8l261.6-261.6l57.9-57.9
	c39.1-39.1,39.1-102.4,0-141.4L656,39.2z M561.8,86.4c13-13,34.1-13,47.1,0l5.7,5.7c13,13,13,34.1,0,47.1l-33.9,33.9l-51.8-53.9
	L561.8,86.4z M481.7,166.4l51.8,53.9l-232,232L231,469.9l17.6-70.5L481.7,166.4z M85.3,215.7c0-18.4,14.9-33.3,33.3-33.3h166.7
	c18.4,0,33.3-14.9,33.3-33.3s-14.9-33.3-33.3-33.3H118.7c-55.2,0-100,44.8-100,100v366.7c0,55.2,44.8,100,100,100h366.7
	c55.2,0,100-44.8,100-100V415.7c0-18.4-14.9-33.3-33.3-33.3c-18.4,0-33.3,14.9-33.3,33.3v166.7c0,18.4-14.9,33.3-33.3,33.3H118.7
	c-18.4,0-33.3-14.9-33.3-33.3L85.3,215.7L85.3,215.7z"/>
</svg>
